<mxfile host="app.diagrams.net" agent="Mozilla/5.0 (Windows NT 10.0; Win64; x64) AppleWebKit/537.36 (KHTML, like Gecko) Chrome/128.0.0.0 Safari/537.36" version="24.7.14">
  <diagram name="Página-1" id="ZyBi8qBE8C0eFL01Zvlv">
    <mxGraphModel dx="2462" dy="1091" grid="1" gridSize="10" guides="1" tooltips="1" connect="1" arrows="1" fold="1" page="1" pageScale="1" pageWidth="827" pageHeight="1169" math="0" shadow="0">
      <root>
        <mxCell id="0" />
        <mxCell id="1" parent="0" />
        <mxCell id="wwCsZvjHZ9UmXGbuxFVW-49" value="" style="rounded=0;whiteSpace=wrap;html=1;" vertex="1" parent="1">
          <mxGeometry x="210" y="220" width="520" height="1050" as="geometry" />
        </mxCell>
        <mxCell id="wwCsZvjHZ9UmXGbuxFVW-34" value="Jogador" style="shape=umlActor;verticalLabelPosition=bottom;verticalAlign=top;html=1;outlineConnect=0;" vertex="1" parent="1">
          <mxGeometry x="35" y="580" width="65" height="150" as="geometry" />
        </mxCell>
        <mxCell id="wwCsZvjHZ9UmXGbuxFVW-50" value="Iniciar um Novo Jogo" style="ellipse;whiteSpace=wrap;html=1;" vertex="1" parent="1">
          <mxGeometry x="230" y="280" width="150" height="90" as="geometry" />
        </mxCell>
        <mxCell id="wwCsZvjHZ9UmXGbuxFVW-66" style="edgeStyle=orthogonalEdgeStyle;rounded=0;orthogonalLoop=1;jettySize=auto;html=1;exitX=0;exitY=0.5;exitDx=0;exitDy=0;" edge="1" parent="1" source="wwCsZvjHZ9UmXGbuxFVW-51">
          <mxGeometry relative="1" as="geometry">
            <mxPoint x="70" y="580" as="targetPoint" />
          </mxGeometry>
        </mxCell>
        <mxCell id="wwCsZvjHZ9UmXGbuxFVW-51" value="&lt;p&gt;&lt;strong&gt;Comprar Torres&lt;/strong&gt;&lt;/p&gt;&lt;ul&gt;&lt;/ul&gt;" style="ellipse;whiteSpace=wrap;html=1;" vertex="1" parent="1">
          <mxGeometry x="230" y="420" width="150" height="90" as="geometry" />
        </mxCell>
        <mxCell id="wwCsZvjHZ9UmXGbuxFVW-67" style="edgeStyle=orthogonalEdgeStyle;rounded=0;orthogonalLoop=1;jettySize=auto;html=1;exitX=0;exitY=0.5;exitDx=0;exitDy=0;" edge="1" parent="1" source="wwCsZvjHZ9UmXGbuxFVW-52" target="wwCsZvjHZ9UmXGbuxFVW-34">
          <mxGeometry relative="1" as="geometry">
            <Array as="points">
              <mxPoint x="168" y="615" />
              <mxPoint x="168" y="630" />
            </Array>
          </mxGeometry>
        </mxCell>
        <mxCell id="wwCsZvjHZ9UmXGbuxFVW-52" value="&lt;strong&gt;Atualizar Torres&lt;/strong&gt;" style="ellipse;whiteSpace=wrap;html=1;" vertex="1" parent="1">
          <mxGeometry x="230" y="570" width="150" height="90" as="geometry" />
        </mxCell>
        <mxCell id="wwCsZvjHZ9UmXGbuxFVW-53" value="&lt;strong&gt;Gerenciar Recursos&lt;/strong&gt;" style="ellipse;whiteSpace=wrap;html=1;" vertex="1" parent="1">
          <mxGeometry x="230" y="715" width="150" height="90" as="geometry" />
        </mxCell>
        <mxCell id="wwCsZvjHZ9UmXGbuxFVW-69" style="edgeStyle=orthogonalEdgeStyle;rounded=0;orthogonalLoop=1;jettySize=auto;html=1;exitX=0;exitY=0.5;exitDx=0;exitDy=0;" edge="1" parent="1" source="wwCsZvjHZ9UmXGbuxFVW-54">
          <mxGeometry relative="1" as="geometry">
            <mxPoint x="70" y="750" as="targetPoint" />
          </mxGeometry>
        </mxCell>
        <mxCell id="wwCsZvjHZ9UmXGbuxFVW-54" value="&lt;p&gt;&lt;strong&gt;Colocar Estratégias&lt;/strong&gt;&lt;/p&gt;&lt;ul&gt;&lt;/ul&gt;" style="ellipse;whiteSpace=wrap;html=1;" vertex="1" parent="1">
          <mxGeometry x="230" y="860" width="150" height="90" as="geometry" />
        </mxCell>
        <mxCell id="wwCsZvjHZ9UmXGbuxFVW-70" style="edgeStyle=orthogonalEdgeStyle;rounded=0;orthogonalLoop=1;jettySize=auto;html=1;exitX=0;exitY=0.5;exitDx=0;exitDy=0;" edge="1" parent="1" source="wwCsZvjHZ9UmXGbuxFVW-55">
          <mxGeometry relative="1" as="geometry">
            <mxPoint x="70" y="750" as="targetPoint" />
          </mxGeometry>
        </mxCell>
        <mxCell id="wwCsZvjHZ9UmXGbuxFVW-55" value="&lt;p&gt;&lt;strong&gt;Interagir com o Jogo&lt;/strong&gt;&lt;/p&gt;&lt;ul&gt;&lt;/ul&gt;" style="ellipse;whiteSpace=wrap;html=1;" vertex="1" parent="1">
          <mxGeometry x="230" y="1010" width="150" height="90" as="geometry" />
        </mxCell>
        <mxCell id="wwCsZvjHZ9UmXGbuxFVW-71" style="edgeStyle=orthogonalEdgeStyle;rounded=0;orthogonalLoop=1;jettySize=auto;html=1;exitX=0;exitY=0.5;exitDx=0;exitDy=0;" edge="1" parent="1" source="wwCsZvjHZ9UmXGbuxFVW-56">
          <mxGeometry relative="1" as="geometry">
            <mxPoint x="70" y="750" as="targetPoint" />
          </mxGeometry>
        </mxCell>
        <mxCell id="wwCsZvjHZ9UmXGbuxFVW-56" value="&lt;p&gt;&lt;strong&gt;Visualizar e Interpretar Informações&lt;/strong&gt;&lt;/p&gt;&lt;ul&gt;&lt;/ul&gt;" style="ellipse;whiteSpace=wrap;html=1;" vertex="1" parent="1">
          <mxGeometry x="230" y="1160" width="150" height="91" as="geometry" />
        </mxCell>
        <mxCell id="wwCsZvjHZ9UmXGbuxFVW-57" value="&lt;strong&gt;Desenvolvimento e Implementação de Funcionalidades&lt;/strong&gt;" style="ellipse;whiteSpace=wrap;html=1;" vertex="1" parent="1">
          <mxGeometry x="550" y="280" width="150" height="90" as="geometry" />
        </mxCell>
        <mxCell id="wwCsZvjHZ9UmXGbuxFVW-58" value="&lt;strong&gt;Design e Criação de Conteúdo&lt;/strong&gt;" style="ellipse;whiteSpace=wrap;html=1;" vertex="1" parent="1">
          <mxGeometry x="550" y="420" width="150" height="90" as="geometry" />
        </mxCell>
        <mxCell id="wwCsZvjHZ9UmXGbuxFVW-59" value="&lt;p&gt;&lt;strong&gt;Testes e Correção de Bugs&lt;/strong&gt;&lt;/p&gt;&lt;ul&gt;&lt;/ul&gt;" style="ellipse;whiteSpace=wrap;html=1;" vertex="1" parent="1">
          <mxGeometry x="550" y="570" width="150" height="90" as="geometry" />
        </mxCell>
        <mxCell id="wwCsZvjHZ9UmXGbuxFVW-76" style="edgeStyle=orthogonalEdgeStyle;rounded=0;orthogonalLoop=1;jettySize=auto;html=1;exitX=1;exitY=0.5;exitDx=0;exitDy=0;" edge="1" parent="1" source="wwCsZvjHZ9UmXGbuxFVW-60" target="wwCsZvjHZ9UmXGbuxFVW-72">
          <mxGeometry relative="1" as="geometry" />
        </mxCell>
        <mxCell id="wwCsZvjHZ9UmXGbuxFVW-60" value="&lt;p&gt;&lt;strong&gt;Otimização e Manutenção&lt;/strong&gt;&lt;/p&gt;&lt;ul&gt;&lt;/ul&gt;" style="ellipse;whiteSpace=wrap;html=1;" vertex="1" parent="1">
          <mxGeometry x="550" y="710" width="150" height="90" as="geometry" />
        </mxCell>
        <mxCell id="wwCsZvjHZ9UmXGbuxFVW-78" style="edgeStyle=orthogonalEdgeStyle;rounded=0;orthogonalLoop=1;jettySize=auto;html=1;exitX=1;exitY=0.5;exitDx=0;exitDy=0;" edge="1" parent="1" source="wwCsZvjHZ9UmXGbuxFVW-62">
          <mxGeometry relative="1" as="geometry">
            <mxPoint x="810" y="760" as="targetPoint" />
          </mxGeometry>
        </mxCell>
        <mxCell id="wwCsZvjHZ9UmXGbuxFVW-62" value="&lt;p&gt;&lt;strong&gt;Atualizações e Novos Conteúdos&lt;/strong&gt;&lt;/p&gt;&lt;ul&gt;&lt;/ul&gt;" style="ellipse;whiteSpace=wrap;html=1;" vertex="1" parent="1">
          <mxGeometry x="550" y="860" width="150" height="90" as="geometry" />
        </mxCell>
        <mxCell id="wwCsZvjHZ9UmXGbuxFVW-79" style="edgeStyle=orthogonalEdgeStyle;rounded=0;orthogonalLoop=1;jettySize=auto;html=1;exitX=1;exitY=0.5;exitDx=0;exitDy=0;" edge="1" parent="1" source="wwCsZvjHZ9UmXGbuxFVW-63">
          <mxGeometry relative="1" as="geometry">
            <mxPoint x="810" y="760" as="targetPoint" />
          </mxGeometry>
        </mxCell>
        <mxCell id="wwCsZvjHZ9UmXGbuxFVW-63" value="&lt;p&gt;&lt;strong&gt;Monitoramento e Análise&lt;/strong&gt;&lt;/p&gt;&lt;ul&gt;&lt;/ul&gt;" style="ellipse;whiteSpace=wrap;html=1;" vertex="1" parent="1">
          <mxGeometry x="550" y="1010" width="150" height="90" as="geometry" />
        </mxCell>
        <mxCell id="wwCsZvjHZ9UmXGbuxFVW-80" style="edgeStyle=orthogonalEdgeStyle;rounded=0;orthogonalLoop=1;jettySize=auto;html=1;exitX=1;exitY=0.5;exitDx=0;exitDy=0;" edge="1" parent="1">
          <mxGeometry relative="1" as="geometry">
            <mxPoint x="810" y="761" as="targetPoint" />
            <mxPoint x="699.9999999999995" y="1196" as="sourcePoint" />
          </mxGeometry>
        </mxCell>
        <mxCell id="wwCsZvjHZ9UmXGbuxFVW-64" value="&lt;p&gt;&lt;strong&gt;Gestão de Backend&lt;/strong&gt;&lt;/p&gt;&lt;ul&gt;&lt;/ul&gt;" style="ellipse;whiteSpace=wrap;html=1;" vertex="1" parent="1">
          <mxGeometry x="550" y="1160" width="150" height="90" as="geometry" />
        </mxCell>
        <mxCell id="wwCsZvjHZ9UmXGbuxFVW-65" style="edgeStyle=orthogonalEdgeStyle;rounded=0;orthogonalLoop=1;jettySize=auto;html=1;exitX=0;exitY=0.5;exitDx=0;exitDy=0;entryX=0.5;entryY=0;entryDx=0;entryDy=0;entryPerimeter=0;" edge="1" parent="1" source="wwCsZvjHZ9UmXGbuxFVW-50" target="wwCsZvjHZ9UmXGbuxFVW-34">
          <mxGeometry relative="1" as="geometry" />
        </mxCell>
        <mxCell id="wwCsZvjHZ9UmXGbuxFVW-68" style="edgeStyle=orthogonalEdgeStyle;rounded=0;orthogonalLoop=1;jettySize=auto;html=1;exitX=0;exitY=0.5;exitDx=0;exitDy=0;entryX=1;entryY=0.3333333333333333;entryDx=0;entryDy=0;entryPerimeter=0;" edge="1" parent="1" source="wwCsZvjHZ9UmXGbuxFVW-53" target="wwCsZvjHZ9UmXGbuxFVW-34">
          <mxGeometry relative="1" as="geometry" />
        </mxCell>
        <mxCell id="wwCsZvjHZ9UmXGbuxFVW-72" value="Sistema&lt;div&gt;&lt;br&gt;&lt;/div&gt;" style="shape=umlActor;verticalLabelPosition=bottom;verticalAlign=top;html=1;outlineConnect=0;" vertex="1" parent="1">
          <mxGeometry x="770" y="580" width="72" height="150" as="geometry" />
        </mxCell>
        <mxCell id="wwCsZvjHZ9UmXGbuxFVW-73" style="edgeStyle=orthogonalEdgeStyle;rounded=0;orthogonalLoop=1;jettySize=auto;html=1;exitX=1;exitY=0.5;exitDx=0;exitDy=0;entryX=0.5;entryY=0;entryDx=0;entryDy=0;entryPerimeter=0;" edge="1" parent="1" source="wwCsZvjHZ9UmXGbuxFVW-57" target="wwCsZvjHZ9UmXGbuxFVW-72">
          <mxGeometry relative="1" as="geometry" />
        </mxCell>
        <mxCell id="wwCsZvjHZ9UmXGbuxFVW-74" style="edgeStyle=orthogonalEdgeStyle;rounded=0;orthogonalLoop=1;jettySize=auto;html=1;exitX=1;exitY=0.5;exitDx=0;exitDy=0;entryX=0.5;entryY=0;entryDx=0;entryDy=0;entryPerimeter=0;" edge="1" parent="1" source="wwCsZvjHZ9UmXGbuxFVW-58" target="wwCsZvjHZ9UmXGbuxFVW-72">
          <mxGeometry relative="1" as="geometry" />
        </mxCell>
        <mxCell id="wwCsZvjHZ9UmXGbuxFVW-75" style="edgeStyle=orthogonalEdgeStyle;rounded=0;orthogonalLoop=1;jettySize=auto;html=1;exitX=1;exitY=0.5;exitDx=0;exitDy=0;entryX=0;entryY=0.3333333333333333;entryDx=0;entryDy=0;entryPerimeter=0;" edge="1" parent="1" source="wwCsZvjHZ9UmXGbuxFVW-59" target="wwCsZvjHZ9UmXGbuxFVW-72">
          <mxGeometry relative="1" as="geometry" />
        </mxCell>
      </root>
    </mxGraphModel>
  </diagram>
</mxfile>
